<mxfile host="65bd71144e">
    <diagram id="TXBD-LZY1iGdPi2Dcbin" name="第 1 页">
        <mxGraphModel dx="793" dy="516" grid="1" gridSize="10" guides="1" tooltips="1" connect="1" arrows="1" fold="1" page="1" pageScale="1" pageWidth="827" pageHeight="1169" math="1" shadow="0">
            <root>
                <mxCell id="0"/>
                <mxCell id="ZRinhEJvjxp6KxaXO4wy-3" value="未命名图层" style="" parent="0"/>
                <mxCell id="ZRinhEJvjxp6KxaXO4wy-4" value="" style="endArrow=none;html=1;rounded=0;fontSize=19;fontFamily=Times New Roman;" parent="ZRinhEJvjxp6KxaXO4wy-3" edge="1">
                    <mxGeometry width="50" height="50" relative="1" as="geometry">
                        <mxPoint x="310" y="360" as="sourcePoint"/>
                        <mxPoint x="360" y="310" as="targetPoint"/>
                    </mxGeometry>
                </mxCell>
                <mxCell id="ZRinhEJvjxp6KxaXO4wy-9" value="" style="endArrow=none;html=1;rounded=0;fontSize=19;fontFamily=Times New Roman;" parent="ZRinhEJvjxp6KxaXO4wy-3" edge="1">
                    <mxGeometry width="50" height="50" relative="1" as="geometry">
                        <mxPoint x="310" y="370" as="sourcePoint"/>
                        <mxPoint x="370" y="310" as="targetPoint"/>
                    </mxGeometry>
                </mxCell>
                <mxCell id="ZRinhEJvjxp6KxaXO4wy-17" value="" style="endArrow=none;html=1;rounded=0;fontSize=19;fontFamily=Times New Roman;" parent="ZRinhEJvjxp6KxaXO4wy-3" edge="1">
                    <mxGeometry width="50" height="50" relative="1" as="geometry">
                        <mxPoint x="310" y="380" as="sourcePoint"/>
                        <mxPoint x="370" y="320" as="targetPoint"/>
                        <Array as="points">
                            <mxPoint x="340" y="350"/>
                        </Array>
                    </mxGeometry>
                </mxCell>
                <mxCell id="ZRinhEJvjxp6KxaXO4wy-19" value="" style="endArrow=none;html=1;rounded=0;fontSize=19;fontFamily=Times New Roman;" parent="ZRinhEJvjxp6KxaXO4wy-3" edge="1">
                    <mxGeometry width="50" height="50" relative="1" as="geometry">
                        <mxPoint x="310" y="390" as="sourcePoint"/>
                        <mxPoint x="370" y="330" as="targetPoint"/>
                        <Array as="points">
                            <mxPoint x="340" y="360"/>
                        </Array>
                    </mxGeometry>
                </mxCell>
                <mxCell id="ZRinhEJvjxp6KxaXO4wy-20" value="" style="endArrow=none;html=1;rounded=0;fontSize=19;fontFamily=Times New Roman;" parent="ZRinhEJvjxp6KxaXO4wy-3" edge="1">
                    <mxGeometry width="50" height="50" relative="1" as="geometry">
                        <mxPoint x="320" y="390" as="sourcePoint"/>
                        <mxPoint x="380" y="330" as="targetPoint"/>
                        <Array as="points">
                            <mxPoint x="350" y="360"/>
                        </Array>
                    </mxGeometry>
                </mxCell>
                <mxCell id="ZRinhEJvjxp6KxaXO4wy-21" value="" style="endArrow=none;html=1;rounded=0;fontSize=19;fontFamily=Times New Roman;" parent="ZRinhEJvjxp6KxaXO4wy-3" edge="1">
                    <mxGeometry width="50" height="50" relative="1" as="geometry">
                        <mxPoint x="320" y="400" as="sourcePoint"/>
                        <mxPoint x="380" y="340" as="targetPoint"/>
                        <Array as="points">
                            <mxPoint x="350" y="370"/>
                        </Array>
                    </mxGeometry>
                </mxCell>
                <mxCell id="ZRinhEJvjxp6KxaXO4wy-22" value="" style="endArrow=none;html=1;rounded=0;fontSize=19;fontFamily=Times New Roman;" parent="ZRinhEJvjxp6KxaXO4wy-3" edge="1">
                    <mxGeometry width="50" height="50" relative="1" as="geometry">
                        <mxPoint x="320" y="410" as="sourcePoint"/>
                        <mxPoint x="380" y="350" as="targetPoint"/>
                        <Array as="points">
                            <mxPoint x="350" y="380"/>
                        </Array>
                    </mxGeometry>
                </mxCell>
                <mxCell id="ZRinhEJvjxp6KxaXO4wy-23" value="" style="endArrow=none;html=1;rounded=0;fontSize=19;fontFamily=Times New Roman;" parent="ZRinhEJvjxp6KxaXO4wy-3" edge="1">
                    <mxGeometry width="50" height="50" relative="1" as="geometry">
                        <mxPoint x="330" y="410" as="sourcePoint"/>
                        <mxPoint x="390" y="350" as="targetPoint"/>
                        <Array as="points">
                            <mxPoint x="360" y="380"/>
                        </Array>
                    </mxGeometry>
                </mxCell>
                <mxCell id="ZRinhEJvjxp6KxaXO4wy-24" value="" style="endArrow=none;html=1;rounded=0;fontSize=19;fontFamily=Times New Roman;" parent="ZRinhEJvjxp6KxaXO4wy-3" edge="1">
                    <mxGeometry width="50" height="50" relative="1" as="geometry">
                        <mxPoint x="330" y="420" as="sourcePoint"/>
                        <mxPoint x="390" y="360" as="targetPoint"/>
                        <Array as="points">
                            <mxPoint x="360" y="390"/>
                        </Array>
                    </mxGeometry>
                </mxCell>
                <mxCell id="ZRinhEJvjxp6KxaXO4wy-25" value="" style="endArrow=none;html=1;rounded=0;fontSize=19;fontFamily=Times New Roman;" parent="ZRinhEJvjxp6KxaXO4wy-3" edge="1">
                    <mxGeometry width="50" height="50" relative="1" as="geometry">
                        <mxPoint x="340" y="420" as="sourcePoint"/>
                        <mxPoint x="400" y="360" as="targetPoint"/>
                        <Array as="points">
                            <mxPoint x="370" y="390"/>
                        </Array>
                    </mxGeometry>
                </mxCell>
                <mxCell id="ZRinhEJvjxp6KxaXO4wy-26" value="" style="endArrow=none;html=1;rounded=0;fontSize=19;fontFamily=Times New Roman;" parent="ZRinhEJvjxp6KxaXO4wy-3" edge="1">
                    <mxGeometry width="50" height="50" relative="1" as="geometry">
                        <mxPoint x="340" y="430" as="sourcePoint"/>
                        <mxPoint x="400" y="370" as="targetPoint"/>
                        <Array as="points">
                            <mxPoint x="370" y="400"/>
                        </Array>
                    </mxGeometry>
                </mxCell>
                <mxCell id="ZRinhEJvjxp6KxaXO4wy-27" value="" style="endArrow=none;html=1;rounded=0;fontSize=19;fontFamily=Times New Roman;" parent="ZRinhEJvjxp6KxaXO4wy-3" edge="1">
                    <mxGeometry width="50" height="50" relative="1" as="geometry">
                        <mxPoint x="340" y="440" as="sourcePoint"/>
                        <mxPoint x="400" y="380" as="targetPoint"/>
                        <Array as="points">
                            <mxPoint x="370" y="410"/>
                        </Array>
                    </mxGeometry>
                </mxCell>
                <mxCell id="ZRinhEJvjxp6KxaXO4wy-28" value="" style="endArrow=none;html=1;rounded=0;fontSize=19;fontFamily=Times New Roman;" parent="ZRinhEJvjxp6KxaXO4wy-3" edge="1">
                    <mxGeometry width="50" height="50" relative="1" as="geometry">
                        <mxPoint x="350" y="440" as="sourcePoint"/>
                        <mxPoint x="410" y="380" as="targetPoint"/>
                        <Array as="points">
                            <mxPoint x="380" y="410"/>
                        </Array>
                    </mxGeometry>
                </mxCell>
                <mxCell id="ZRinhEJvjxp6KxaXO4wy-29" value="" style="endArrow=none;html=1;rounded=0;fontSize=19;fontFamily=Times New Roman;" parent="ZRinhEJvjxp6KxaXO4wy-3" edge="1">
                    <mxGeometry width="50" height="50" relative="1" as="geometry">
                        <mxPoint x="350" y="450" as="sourcePoint"/>
                        <mxPoint x="410" y="390" as="targetPoint"/>
                        <Array as="points">
                            <mxPoint x="380" y="420"/>
                        </Array>
                    </mxGeometry>
                </mxCell>
                <mxCell id="ZRinhEJvjxp6KxaXO4wy-30" value="" style="endArrow=none;html=1;rounded=0;fontSize=19;fontFamily=Times New Roman;" parent="ZRinhEJvjxp6KxaXO4wy-3" edge="1">
                    <mxGeometry width="50" height="50" relative="1" as="geometry">
                        <mxPoint x="370" y="440" as="sourcePoint"/>
                        <mxPoint x="430" y="380" as="targetPoint"/>
                        <Array as="points">
                            <mxPoint x="400" y="410"/>
                        </Array>
                    </mxGeometry>
                </mxCell>
                <mxCell id="ZRinhEJvjxp6KxaXO4wy-31" value="" style="endArrow=none;html=1;rounded=0;fontSize=19;fontFamily=Times New Roman;" parent="ZRinhEJvjxp6KxaXO4wy-3" edge="1">
                    <mxGeometry width="50" height="50" relative="1" as="geometry">
                        <mxPoint x="360" y="460" as="sourcePoint"/>
                        <mxPoint x="420" y="400" as="targetPoint"/>
                        <Array as="points">
                            <mxPoint x="390" y="430"/>
                        </Array>
                    </mxGeometry>
                </mxCell>
                <mxCell id="ZRinhEJvjxp6KxaXO4wy-32" value="" style="endArrow=none;html=1;rounded=0;fontSize=19;fontFamily=Times New Roman;" parent="ZRinhEJvjxp6KxaXO4wy-3" edge="1">
                    <mxGeometry width="50" height="50" relative="1" as="geometry">
                        <mxPoint x="370" y="460" as="sourcePoint"/>
                        <mxPoint x="430" y="400" as="targetPoint"/>
                        <Array as="points">
                            <mxPoint x="400" y="430"/>
                        </Array>
                    </mxGeometry>
                </mxCell>
                <mxCell id="ZRinhEJvjxp6KxaXO4wy-33" value="" style="endArrow=none;html=1;rounded=0;fontSize=19;fontFamily=Times New Roman;" parent="ZRinhEJvjxp6KxaXO4wy-3" edge="1">
                    <mxGeometry width="50" height="50" relative="1" as="geometry">
                        <mxPoint x="370" y="470" as="sourcePoint"/>
                        <mxPoint x="430" y="410" as="targetPoint"/>
                        <Array as="points">
                            <mxPoint x="400" y="440"/>
                        </Array>
                    </mxGeometry>
                </mxCell>
                <mxCell id="ZRinhEJvjxp6KxaXO4wy-34" value="" style="endArrow=none;html=1;rounded=0;fontSize=19;fontFamily=Times New Roman;" parent="ZRinhEJvjxp6KxaXO4wy-3" source="ZRinhEJvjxp6KxaXO4wy-45" edge="1">
                    <mxGeometry width="50" height="50" relative="1" as="geometry">
                        <mxPoint x="370" y="480" as="sourcePoint"/>
                        <mxPoint x="430" y="420" as="targetPoint"/>
                        <Array as="points">
                            <mxPoint x="400" y="450"/>
                        </Array>
                    </mxGeometry>
                </mxCell>
                <mxCell id="ZRinhEJvjxp6KxaXO4wy-35" value="" style="endArrow=none;html=1;rounded=0;fontSize=19;fontFamily=Times New Roman;" parent="ZRinhEJvjxp6KxaXO4wy-3" edge="1">
                    <mxGeometry width="50" height="50" relative="1" as="geometry">
                        <mxPoint x="390" y="470" as="sourcePoint"/>
                        <mxPoint x="430" y="430" as="targetPoint"/>
                        <Array as="points">
                            <mxPoint x="400" y="460"/>
                        </Array>
                    </mxGeometry>
                </mxCell>
                <mxCell id="ZRinhEJvjxp6KxaXO4wy-41" value="" style="ellipse;whiteSpace=wrap;html=1;aspect=fixed;fontSize=19;fontFamily=Times New Roman;" parent="ZRinhEJvjxp6KxaXO4wy-3" vertex="1">
                    <mxGeometry x="360" y="320" width="80" height="80" as="geometry"/>
                </mxCell>
                <mxCell id="ZRinhEJvjxp6KxaXO4wy-43" value="" style="endArrow=none;html=1;rounded=0;fontSize=19;fontFamily=Times New Roman;" parent="ZRinhEJvjxp6KxaXO4wy-3" target="ZRinhEJvjxp6KxaXO4wy-42" edge="1">
                    <mxGeometry width="50" height="50" relative="1" as="geometry">
                        <mxPoint x="340" y="440" as="sourcePoint"/>
                        <mxPoint x="400" y="380" as="targetPoint"/>
                        <Array as="points"/>
                    </mxGeometry>
                </mxCell>
                <mxCell id="ZRinhEJvjxp6KxaXO4wy-42" value="" style="verticalLabelPosition=bottom;verticalAlign=top;html=1;shape=mxgraph.basic.partConcEllipse;startAngle=0.7961305016072695;endAngle=0.4454060442831853;arcWidth=0.5;fillColor=default;fontSize=19;fontFamily=Times New Roman;" parent="ZRinhEJvjxp6KxaXO4wy-3" vertex="1">
                    <mxGeometry x="320" y="280" width="160" height="160" as="geometry"/>
                </mxCell>
                <mxCell id="ZRinhEJvjxp6KxaXO4wy-45" value="" style="verticalLabelPosition=bottom;verticalAlign=top;html=1;shape=mxgraph.basic.partConcEllipse;startAngle=0.25;endAngle=0.1;arcWidth=0.33;strokeColor=none;fillColor=default;fontSize=19;fontFamily=Times New Roman;" parent="ZRinhEJvjxp6KxaXO4wy-3" vertex="1">
                    <mxGeometry x="280" y="240" width="240" height="240" as="geometry"/>
                </mxCell>
                <mxCell id="1" style="" parent="0"/>
                <mxCell id="F5VEuz6RJH4SYdOjmclk-13" value="" style="ellipse;whiteSpace=wrap;html=1;aspect=fixed;fillColor=none;fillStyle=hatch;gradientColor=none;strokeColor=default;shadow=0;fontFamily=Times New Roman;" parent="1" vertex="1">
                    <mxGeometry x="320" y="280" width="160" height="160" as="geometry"/>
                </mxCell>
                <mxCell id="F5VEuz6RJH4SYdOjmclk-14" value="" style="endArrow=none;html=1;rounded=0;entryX=0.5;entryY=0.25;entryDx=0;entryDy=0;entryPerimeter=0;fontFamily=Times New Roman;" parent="1" target="F5VEuz6RJH4SYdOjmclk-13" edge="1">
                    <mxGeometry width="50" height="50" relative="1" as="geometry">
                        <mxPoint x="399.89" y="280" as="sourcePoint"/>
                        <mxPoint x="399.89" y="310.00000000000006" as="targetPoint"/>
                    </mxGeometry>
                </mxCell>
                <mxCell id="F5VEuz6RJH4SYdOjmclk-16" value="" style="endArrow=none;html=1;rounded=0;entryX=0.5;entryY=0.25;entryDx=0;entryDy=0;entryPerimeter=0;fontFamily=Times New Roman;" parent="1" edge="1">
                    <mxGeometry width="50" height="50" relative="1" as="geometry">
                        <mxPoint x="399.9" y="400" as="sourcePoint"/>
                        <mxPoint x="400.01" y="440" as="targetPoint"/>
                    </mxGeometry>
                </mxCell>
                <mxCell id="F5VEuz6RJH4SYdOjmclk-17" value="" style="endArrow=none;html=1;rounded=0;entryX=0.018;entryY=0.358;entryDx=0;entryDy=0;entryPerimeter=0;fontFamily=Times New Roman;" parent="1" target="F5VEuz6RJH4SYdOjmclk-13" edge="1">
                    <mxGeometry width="50" height="50" relative="1" as="geometry">
                        <mxPoint x="400" y="360" as="sourcePoint"/>
                        <mxPoint x="430" y="340" as="targetPoint"/>
                    </mxGeometry>
                </mxCell>
                <mxCell id="F5VEuz6RJH4SYdOjmclk-19" value="" style="endArrow=none;html=1;rounded=0;entryX=1;entryY=0.5;entryDx=0;entryDy=0;exitX=1;exitY=0.5;exitDx=0;exitDy=0;fontFamily=Times New Roman;" parent="1" target="F5VEuz6RJH4SYdOjmclk-13" edge="1">
                    <mxGeometry width="50" height="50" relative="1" as="geometry">
                        <mxPoint x="440.00000000000114" y="360" as="sourcePoint"/>
                        <mxPoint x="430" y="320" as="targetPoint"/>
                    </mxGeometry>
                </mxCell>
                <mxCell id="F5VEuz6RJH4SYdOjmclk-20" value="" style="endArrow=none;html=1;rounded=0;exitX=0.5;exitY=0.5;exitDx=0;exitDy=0;exitPerimeter=0;entryX=0.83;entryY=0.121;entryDx=0;entryDy=0;entryPerimeter=0;fontFamily=Times New Roman;" parent="1" source="F5VEuz6RJH4SYdOjmclk-13" target="F5VEuz6RJH4SYdOjmclk-13" edge="1">
                    <mxGeometry width="50" height="50" relative="1" as="geometry">
                        <mxPoint x="440" y="350" as="sourcePoint"/>
                        <mxPoint x="451.15999999999997" y="340" as="targetPoint"/>
                    </mxGeometry>
                </mxCell>
                <mxCell id="F5VEuz6RJH4SYdOjmclk-21" value="" style="endArrow=none;html=1;rounded=0;entryX=0.673;entryY=0.036;entryDx=0;entryDy=0;entryPerimeter=0;fontFamily=Times New Roman;" parent="1" target="F5VEuz6RJH4SYdOjmclk-13" edge="1">
                    <mxGeometry width="50" height="50" relative="1" as="geometry">
                        <mxPoint x="400" y="360" as="sourcePoint"/>
                        <mxPoint x="450" y="320" as="targetPoint"/>
                    </mxGeometry>
                </mxCell>
                <mxCell id="F5VEuz6RJH4SYdOjmclk-22" value="" style="endArrow=none;html=1;rounded=0;exitX=0.667;exitY=0.967;exitDx=0;exitDy=0;exitPerimeter=0;fontFamily=Times New Roman;" parent="1" source="F5VEuz6RJH4SYdOjmclk-13" edge="1">
                    <mxGeometry width="50" height="50" relative="1" as="geometry">
                        <mxPoint x="340" y="390" as="sourcePoint"/>
                        <mxPoint x="400" y="360" as="targetPoint"/>
                    </mxGeometry>
                </mxCell>
                <mxCell id="M3e4Apx0yC4hlDwfOrhS-1" value="" style="endArrow=none;html=1;rounded=0;entryX=0.089;entryY=0.214;entryDx=0;entryDy=0;entryPerimeter=0;fontFamily=Times New Roman;" parent="1" target="F5VEuz6RJH4SYdOjmclk-13" edge="1">
                    <mxGeometry width="50" height="50" relative="1" as="geometry">
                        <mxPoint x="400" y="360" as="sourcePoint"/>
                        <mxPoint x="460" y="360" as="targetPoint"/>
                    </mxGeometry>
                </mxCell>
                <mxCell id="M3e4Apx0yC4hlDwfOrhS-2" value="" style="endArrow=none;html=1;rounded=0;entryX=0.932;entryY=0.247;entryDx=0;entryDy=0;entryPerimeter=0;fontFamily=Times New Roman;" parent="1" target="F5VEuz6RJH4SYdOjmclk-13" edge="1">
                    <mxGeometry width="50" height="50" relative="1" as="geometry">
                        <mxPoint x="400" y="360" as="sourcePoint"/>
                        <mxPoint x="468" y="320" as="targetPoint"/>
                    </mxGeometry>
                </mxCell>
                <mxCell id="M3e4Apx0yC4hlDwfOrhS-4" value="&lt;font style=&quot;font-size: 19px;&quot;&gt;...&lt;/font&gt;" style="text;html=1;strokeColor=none;fillColor=none;align=center;verticalAlign=middle;whiteSpace=wrap;rounded=0;fontFamily=Times New Roman;" parent="1" vertex="1">
                    <mxGeometry x="340" y="290" width="60" height="30" as="geometry"/>
                </mxCell>
                <mxCell id="M3e4Apx0yC4hlDwfOrhS-5" value="&lt;font style=&quot;font-size: 17px;&quot;&gt;maxSize\(-1\)&lt;/font&gt;" style="text;html=1;strokeColor=none;fillColor=none;align=center;verticalAlign=middle;whiteSpace=wrap;rounded=0;fontSize=17;fontFamily=Times New Roman;" parent="1" vertex="1">
                    <mxGeometry x="370" y="250" width="100" height="30" as="geometry"/>
                </mxCell>
                <mxCell id="M3e4Apx0yC4hlDwfOrhS-6" value="&lt;font style=&quot;font-size: 19px;&quot;&gt;0&lt;/font&gt;" style="text;html=1;strokeColor=none;fillColor=none;align=center;verticalAlign=middle;whiteSpace=wrap;rounded=0;fontSize=19;fontFamily=Times New Roman;" parent="1" vertex="1">
                    <mxGeometry x="414" y="270" width="60" height="30" as="geometry"/>
                </mxCell>
                <mxCell id="M3e4Apx0yC4hlDwfOrhS-7" value="&lt;font style=&quot;font-size: 19px;&quot;&gt;1&lt;/font&gt;" style="text;html=1;align=center;verticalAlign=middle;resizable=0;points=[];autosize=1;strokeColor=none;fillColor=none;fontSize=19;fontFamily=Times New Roman;" parent="1" vertex="1">
                    <mxGeometry x="450" y="285" width="30" height="40" as="geometry"/>
                </mxCell>
                <mxCell id="M3e4Apx0yC4hlDwfOrhS-8" value="" style="endArrow=none;html=1;rounded=0;entryX=0.809;entryY=0.89;entryDx=0;entryDy=0;entryPerimeter=0;fontFamily=Times New Roman;" parent="1" target="F5VEuz6RJH4SYdOjmclk-13" edge="1">
                    <mxGeometry width="50" height="50" relative="1" as="geometry">
                        <mxPoint x="400" y="360" as="sourcePoint"/>
                        <mxPoint x="450" y="320" as="targetPoint"/>
                    </mxGeometry>
                </mxCell>
                <mxCell id="M3e4Apx0yC4hlDwfOrhS-10" value="&lt;font style=&quot;font-size: 19px;&quot;&gt;...&lt;/font&gt;" style="text;html=1;strokeColor=none;fillColor=none;align=center;verticalAlign=middle;whiteSpace=wrap;rounded=0;fontFamily=Times New Roman;" parent="1" vertex="1">
                    <mxGeometry x="420" y="360" width="60" height="40" as="geometry"/>
                </mxCell>
                <mxCell id="ZRinhEJvjxp6KxaXO4wy-46" value="" style="ellipse;whiteSpace=wrap;html=1;aspect=fixed;fontFamily=Times New Roman;" parent="1" vertex="1">
                    <mxGeometry x="360" y="320" width="80" height="80" as="geometry"/>
                </mxCell>
                <mxCell id="ZRinhEJvjxp6KxaXO4wy-47" value="" style="endArrow=classic;html=1;rounded=0;exitX=0.667;exitY=0.917;exitDx=0;exitDy=0;exitPerimeter=0;fontFamily=Times New Roman;" parent="1" edge="1">
                    <mxGeometry width="50" height="50" relative="1" as="geometry">
                        <mxPoint x="431.0799999999999" y="450.0799999999999" as="sourcePoint"/>
                        <mxPoint x="430" y="410" as="targetPoint"/>
                    </mxGeometry>
                </mxCell>
                <mxCell id="ZRinhEJvjxp6KxaXO4wy-48" value="&lt;font style=&quot;font-size: 19px;&quot;&gt;front&lt;/font&gt;" style="text;html=1;strokeColor=none;fillColor=none;align=center;verticalAlign=middle;whiteSpace=wrap;rounded=0;fontSize=19;fontFamily=Times New Roman;" parent="1" vertex="1">
                    <mxGeometry x="400" y="440" width="60" height="30" as="geometry"/>
                </mxCell>
                <mxCell id="ZRinhEJvjxp6KxaXO4wy-49" value="" style="endArrow=classic;html=1;rounded=0;exitX=0.083;exitY=0.375;exitDx=0;exitDy=0;exitPerimeter=0;fontSize=11;fontFamily=Times New Roman;" parent="1" edge="1">
                    <mxGeometry width="50" height="50" relative="1" as="geometry">
                        <mxPoint x="280" y="345" as="sourcePoint"/>
                        <mxPoint x="320" y="345" as="targetPoint"/>
                    </mxGeometry>
                </mxCell>
                <mxCell id="ZRinhEJvjxp6KxaXO4wy-50" value="&lt;font style=&quot;font-size: 19px;&quot;&gt;rear&lt;/font&gt;" style="text;html=1;strokeColor=none;fillColor=none;align=center;verticalAlign=middle;whiteSpace=wrap;rounded=0;fontSize=19;fontFamily=Times New Roman;" parent="1" vertex="1">
                    <mxGeometry x="220" y="330" width="80" height="30" as="geometry"/>
                </mxCell>
            </root>
        </mxGraphModel>
    </diagram>
</mxfile>